<?xml version="1.0" standalone="no"?><!DOCTYPE svg PUBLIC "-//W3C//DTD SVG 1.1//EN" "http://www.w3.org/Graphics/SVG/1.1/DTD/svg11.dtd"><svg t="1682765772922" class="icon" viewBox="0 0 1024 1024" version="1.1" xmlns="http://www.w3.org/2000/svg" p-id="7066" xmlns:xlink="http://www.w3.org/1999/xlink" width="200" height="200"><path d="M0 0h1024v1024H0z" fill="#FFFFFF" opacity=".01" p-id="7067"></path><path d="M425.6 125.328h156.8c21.952 0 39.2-17.008 39.2-38.656C621.6 65.008 604.352 48 582.4 48h-156.8c-21.952 0-39.2 17.008-39.2 38.672 0 21.648 17.248 38.656 39.2 38.656zM770.56 976H896l-117.6-122.96c45.472-16.24 78.4-58.768 78.4-109.04v-464c0-64.192-53.312-116-117.6-116H268.8c-65.072 0-117.6 52.592-117.6 116v464c0 50.272 32.928 93.568 78.4 109.04L112 976h125.44l111.328-116h310.464L770.56 976zM241.36 349.6c0-42.528 35.28-77.328 78.4-77.328h368.48c43.12 0 78.4 34.8 78.4 77.328v131.472c0 42.528-35.28 77.328-78.4 77.328h-368.48c-43.12 0-78.4-34.8-78.4-77.328V349.6z m90.16 425.328c-34.496 0-62.72-27.84-62.72-61.856 0-34.032 28.224-61.872 62.72-61.872 34.496 0 62.72 27.84 62.72 61.872 0 34.016-28.224 61.856-62.72 61.856z m282.24-61.856c0-34.032 28.224-61.872 62.72-61.872 34.496 0 62.72 27.84 62.72 61.872 0 34.016-28.224 61.856-62.72 61.856-34.496 0-62.72-27.84-62.72-61.856z" fill="#848484" p-id="7068"></path></svg>