<?xml version="1.0" standalone="no"?><!DOCTYPE svg PUBLIC "-//W3C//DTD SVG 1.1//EN" "http://www.w3.org/Graphics/SVG/1.1/DTD/svg11.dtd"><svg t="1682765389466" class="icon" viewBox="0 0 1024 1024" version="1.1" xmlns="http://www.w3.org/2000/svg" p-id="5123" xmlns:xlink="http://www.w3.org/1999/xlink" width="200" height="200"><path d="M910.165333 312.888889l-0.483555-0.056889V682.666667c0 31.431111 0.540444 56.888889 0.540444 56.888889h-28.444444 28.444444v199.111111a28.444444 28.444444 0 0 1-28.444444 28.444444h-85.333334a28.444444 28.444444 0 0 1-28.444444-28.444444l-9.472-56.888889H265.472L256 938.666667a28.444444 28.444444 0 0 1-28.444444 28.444444H142.222222a28.444444 28.444444 0 0 1-28.444444-28.444444v-199.111111h28.444444-28.444444s-0.512-25.457778-0.512-56.888889V312.832C82.090667 312.519111 56.888889 287.715556 56.888889 257.052444V201.187556c0-30.634667 25.201778-27.932444 56.376889-27.904V113.777778a56.888889 56.888889 0 0 1 56.888889-56.888889h682.638222a56.888889 56.888889 0 0 1 56.888889 56.888889v56.945778L910.165333 170.666667C941.624889 170.666667 967.111111 167.68 967.111111 199.111111v56.888889a56.888889 56.888889 0 0 1-56.945778 56.888889zM227.555556 718.222222c0 11.776 10.183111 21.333333 22.755555 21.333334H341.333333c0-71.367111-55.694222-85.333333-68.266666-85.333334h-22.755556c-12.572444 0-22.755556 9.557333-22.755555 21.333334v42.666666zM796.444444 256V199.111111a28.444444 28.444444 0 0 0-28.444444-28.444444H256a28.444444 28.444444 0 0 0-28.444444 28.444444v227.555556a56.888889 56.888889 0 0 0 56.888888 56.888889h455.111112a56.888889 56.888889 0 0 0 56.888888-56.888889V256z m0 419.555556c0-11.776-10.183111-21.333333-22.755555-21.333334h-22.755556c-12.572444 0-68.266667 13.966222-68.266666 85.333334h91.022222c12.572444 0 22.755556-9.557333 22.755555-21.333334v-42.666666z" fill="#000000" p-id="5124"></path><path d="M910.165333 312.888889l-0.483555-0.056889V682.666667c0 31.431111 0.540444 56.888889 0.540444 56.888889v199.111111a28.444444 28.444444 0 0 1-28.444444 28.444444h-85.333334a28.444444 28.444444 0 0 1-28.444444-28.444444l-9.472-56.888889H265.472L256 938.666667a28.444444 28.444444 0 0 1-28.444444 28.444444H142.222222a28.444444 28.444444 0 0 1-28.444444-28.444444v-199.111111s-0.512-25.457778-0.512-56.888889V312.832C82.090667 312.519111 56.888889 287.715556 56.888889 257.052444V201.187556c0-30.634667 25.201778-27.932444 56.376889-27.904V113.777778a56.888889 56.888889 0 0 1 56.888889-56.888889h682.638222a56.888889 56.888889 0 0 1 56.888889 56.888889v56.945778L910.165333 170.666667C941.624889 170.666667 967.111111 167.68 967.111111 199.111111v56.888889a56.888889 56.888889 0 0 1-56.945778 56.888889zM227.555556 718.222222c0 11.776 10.183111 21.333333 22.755555 21.333334H341.333333c0-71.367111-55.694222-85.333333-68.266666-85.333334h-22.755556c-12.572444 0-22.755556 9.557333-22.755555 21.333334v42.666666zM796.444444 199.111111a28.444444 28.444444 0 0 0-28.444444-28.444444H256a28.444444 28.444444 0 0 0-28.444444 28.444444v227.555556a56.888889 56.888889 0 0 0 56.888888 56.888889h455.111112a56.888889 56.888889 0 0 0 56.888888-56.888889V199.111111z m0 476.444445c0-11.776-10.183111-21.333333-22.755555-21.333334h-22.755556c-12.572444 0-68.266667 13.966222-68.266666 85.333334h91.022222c12.572444 0 22.755556-9.557333 22.755555-21.333334v-42.666666z" fill="#000000" p-id="5125"></path></svg>