<?xml version="1.0" standalone="no"?><!DOCTYPE svg PUBLIC "-//W3C//DTD SVG 1.1//EN" "http://www.w3.org/Graphics/SVG/1.1/DTD/svg11.dtd"><svg t="1682765989156" class="icon" viewBox="0 0 1024 1024" version="1.1" xmlns="http://www.w3.org/2000/svg" p-id="8273" xmlns:xlink="http://www.w3.org/1999/xlink" width="200" height="200"><path d="M213.333333 588.16c15.914667-5.824 31.04-11.456 46.293334-16.746667 1.493333-0.533333 3.968 0.554667 5.589333 1.557334 17.024 10.538667 33.92 21.269333 50.986667 31.786666 1.6 1.002667 4.288 1.578667 5.973333 0.96 34.666667-12.416 69.248-25.045333 103.829333-37.632 0.576-0.213333 1.109333-0.576 2.112-1.130666l-133.12-205.141334c1.578667-0.682667 2.816-1.28 4.074667-1.749333 16.384-5.994667 32.832-11.861333 49.130667-18.048 3.498667-1.322667 5.76-0.704 8.576 1.536 70.272 55.850667 140.650667 111.573333 210.88 167.466667 3.626667 2.88 6.4 3.242667 10.688 1.664 55.893333-20.501333 111.850667-40.853333 167.808-61.141334 26.048-9.450667 51.797333 5.888 55.914666 33.130667 2.816 18.624-8.682667 37.077333-27.605333 44.010667-44.053333 16.085333-88.106667 32.106667-132.181333 48.149333L334.613333 688.853333c-22.144 8.085333-39.04 2.048-53.162666-16.938666-12.906667-17.344-27.2-33.664-40.874667-50.410667L213.333333 588.16z" fill="#3D3D3D" p-id="8274"></path></svg>